<?xml version="1.0" encoding="UTF-8"?>
<svg xmlns="http://www.w3.org/2000/svg" version="1.1" xmlns:cc="http://creativecommons.org/ns#" xmlns:dc="http://purl.org/dc/elements/1.1/" xmlns:inkscape="http://www.inkscape.org/namespaces/inkscape" xmlns:rdf="http://www.w3.org/1999/02/22-rdf-syntax-ns#" xmlns:sodipodi="http://sodipodi.sourceforge.net/DTD/sodipodi-0.dtd" xmlns:svg="http://www.w3.org/2000/svg" viewBox="0 0 91 130">
  <defs>
    <style>
      .cls-1 {
        fill: #3d99e1;
      }

      .cls-2 {
        fill: #bbd9fe;
      }

      .cls-3 {
        fill: #bcdafe;
      }

      .cls-4 {
        fill: #fefefe;
      }
    </style>
  </defs>
  <!-- Generator: Adobe Illustrator 28.6.0, SVG Export Plug-In . SVG Version: 1.2.0 Build 709)  -->
  <g>
    <g id="svg2">
      <sodipodi:namedview id="namedview14" bordercolor="#666666" borderopacity="1" fit-margin-bottom="0" fit-margin-left="0" fit-margin-right="0" fit-margin-top="0" gridtolerance="10" guidetolerance="10" inkscape:current-layer="svg2" inkscape:cx="-173.69312" inkscape:cy="53.485925" inkscape:pageopacity="0" inkscape:pageshadow="2" inkscape:window-height="876" inkscape:window-maximized="1" inkscape:window-width="1600" inkscape:window-x="1600" inkscape:window-y="24" inkscape:zoom="1.0477386" objecttolerance="10" pagecolor="#ffffff" showgrid="false"/>
      <g id="Ebene_1">
        <g id="Layer_1-2">
          <g>
            <path class="cls-1" d="M64.2,78.5h-2.5c-.3,0-.5.1-.7.4-2.6,5.5-6.3,10.3-10.2,15-1.6,1.9-3.3,3.8-5,5.6-.7.7-1.3.7-1.9,0-5.3-5.6-10.2-11.4-14.1-18.2-.4-.8-.8-1.5-1.2-2.3-.2-.5-.4-.6-1-.6-2.1,0-4.1.1-6.2-.3-6.6-1.2-11.8-7-12.5-13.6-.8-7.6,4.1-14.7,11.3-16.6.6-.2.6-.5.5-.9-.3-8.5,4.9-15.7,12.9-18.1,7.5-2.2,15.6.8,19.9,7.3.3.5.6.6,1.2.5,6.8-.9,12.6,3.5,13.6,10.3,0,.6.3.8.9,1,5.9,1.7,10.4,7,11.1,13,.9,8.4-4.5,15.7-12.9,17.2-1.2.2-2.5.2-3.5.2h0Z"/>
            <path class="cls-3" d="M62.1,76.1c.4-1.4.7-2.8.6-4.3-.3-8.2-6.2-15.2-14.1-16.8-6.6-1.4-12.4.4-17.1,5.3-2.7,2.8-4.2,6.2-4.7,10.1-.2,1.7-.1,3.4.3,5.1,0,.3.2.5-.3.5-3,0-6,0-8.7-1.5-3.9-2.2-6.2-5.4-6.9-9.9-1-6.6,3.4-13.4,10.8-14.8,1-.2,1.3-.5,1.2-1.5-.3-2.7-.1-5.3.9-7.9,2.3-5.6,6.5-9,12.6-9.8,4.9-.7,9.2.9,12.8,4.3,1,1,1.9,2.1,2.6,3.4.6,1.1.9,1.2,2.1.9,6.1-1.5,11.8,2.9,11.9,9.2,0,.9.3,1.3,1.2,1.5,5.7,1.3,9.3,4.8,10.5,10.5,1.4,7-3.3,13.8-10.2,15.2-1.9.4-3.8.3-5.7.3h0Z"/>
            <path class="cls-4" d="M43.8,56.9c8.9,0,15.5,5.9,16.4,13.7.3,2.7-.3,5.2-1.5,7.6-2.1,4.4-5,8.2-8,12-1.8,2.2-3.7,4.4-5.6,6.4-.3.3-.4.5-.8,0-4.5-5-8.9-10.1-12.3-16-1.3-2.2-2.4-4.4-2.8-7-.4-2.9.2-5.7,1.5-8.2,2.9-5.6,7.6-8.3,12.9-8.6h0Z"/>
            <path class="cls-1" d="M38.8,35.4v.6c0,.5-.2.6-.6.6-4,.3-7.4,3-8.6,6.9-.2.7-.2,1.5-.4,2.2-.3,1-1.2.3-1.8.5-.4.1-.6,0-.6-.6.2-2.6,1-5,2.7-7,2.1-2.5,4.8-3.9,8.1-4.3,1.1-.2,1.2-.2,1.2,1.2h0Z"/>
            <path class="cls-1" d="M65.1,71.3v-.5c0-.4,0-.6.6-.7,3.2-.4,5.4-2.2,6.3-5.3.1-.4.2-.8.2-1.2,0-.7.3-.7.8-.7q1.7,0,1.5,1.7c-.5,3.7-4,7.2-7.8,7.7,0,0-.2,0-.3,0-.9.2-1.4-.2-1.4-1.1h0Z"/>
            <path class="cls-1" d="M44.7,80.8c-5.3,0-9.6-4.3-9.6-9.7,0-5.2,4.3-9.5,9.6-9.5s9.6,4.4,9.5,9.6c0,5.3-4.3,9.6-9.6,9.5h0Z"/>
            <path class="cls-3" d="M44.7,72.5h-.8c-.5,0-1.2.2-1.4-.1-.3-.5-.1-1.3-.1-2s.2-.3.4-.3c1.3,0,2.6-.1,3.9,0,1,.1.3,1,.4,1.5,0,.3.2.8-.5.8h-1.9Z"/>
            <path class="cls-3" d="M44.8,67.7h-1.1c-.9,0-.9,0-.7-.9.3-.8.6-1.7,1.2-2.4.4-.4.7-.4,1.1,0,.8.8,1.1,1.9,1.3,2.9,0,.3-.1.3-.3.3h-1.6,0Z"/>
            <path class="cls-3" d="M44.8,74.9h.7c1.4,0,1.4,0,.9,1.3-.3.7-.5,1.4-1.1,2-.3.3-.7.4-1,0-.8-.8-1.1-1.9-1.4-3,0-.3.2-.3.4-.3h1.6Z"/>
            <path class="cls-3" d="M40,71.3c0,1.2.2,1.2-.9,1.2s-1.5-.4-1.5-1.2c0-1.2,0-1.2,1.1-1.2s1.3.4,1.3,1.2h0Z"/>
            <path class="cls-3" d="M49.6,71.3c0-.8.3-1.2,1-1.2,1,0,1.4.4,1.4,1.2,0,1.2,0,1.2-1.1,1.2s-1.3-.4-1.3-1.2h0Z"/>
            <path class="cls-2" d="M38.6,67.7c.7-1,1.3-1.8,2.4-2.5-.2.8-.4,1.5-.6,2.2,0,.2-.2.3-.5.3h-1.3,0Z"/>
            <path class="cls-2" d="M50.9,67.6c-1,0-1.7-.3-1.9-1.3,0-.3-.2-.6-.3-.9.7.2,1.7,1.2,2.2,2.2h0Z"/>
            <path class="cls-2" d="M38.7,74.9c1,0,1.7.3,1.9,1.3,0,.3.2.6.3.9-.7-.2-1.8-1.2-2.2-2.2h0Z"/>
            <path class="cls-2" d="M51,74.9c-.7,1-1.3,1.8-2.3,2.4.2-.8.4-1.4.5-2.1,0-.3.2-.4.5-.3h1.3Z"/>
          </g>
        </g>
      </g>
    </g>
  </g>
</svg>