<?xml version="1.0" encoding="UTF-8"?>
<svg xmlns="http://www.w3.org/2000/svg" version="1.1" xmlns:cc="http://creativecommons.org/ns#" xmlns:dc="http://purl.org/dc/elements/1.1/" xmlns:inkscape="http://www.inkscape.org/namespaces/inkscape" xmlns:rdf="http://www.w3.org/1999/02/22-rdf-syntax-ns#" xmlns:sodipodi="http://sodipodi.sourceforge.net/DTD/sodipodi-0.dtd" xmlns:svg="http://www.w3.org/2000/svg" viewBox="0 0 90.7 113.4">
  <defs>
    <style>
      .cls-1 {
        fill: #00dd87;
      }

      .cls-2 {
        fill: #0f49aa;
      }

      .cls-3 {
        fill: #fcd320;
      }
    </style>
  </defs>
  <!-- Generator: Adobe Illustrator 28.6.0, SVG Export Plug-In . SVG Version: 1.2.0 Build 709)  -->
  <g>
    <g id="svg2">
      <sodipodi:namedview id="namedview122" bordercolor="#666666" borderopacity="1" fit-margin-bottom="0" fit-margin-left="0" fit-margin-right="0" fit-margin-top="0" gridtolerance="10" guidetolerance="10" inkscape:current-layer="svg2" inkscape:cx="-100.88941" inkscape:cy="204.35545" inkscape:pageopacity="0" inkscape:pageshadow="2" inkscape:window-height="876" inkscape:window-maximized="1" inkscape:window-width="1600" inkscape:window-x="0" inkscape:window-y="24" inkscape:zoom="1.5857387" objecttolerance="10" pagecolor="#ffffff" showgrid="false"/>
      <g id="Layer_1-2">
        <g>
          <path class="cls-2" d="M68.1,33.2c.8.5,1.3,1.2,1.9,1.9,1.1,1.3,2.2,2.6,3.1,4.1,2,3.3,3.5,6.9,4.3,10.7.7,3.1.7,6.1.6,9.2-.2,3.3-1,6.5-2.2,9.6-1.1,2.8-2.6,5.5-4.5,7.9-1.6,2-3.4,3.9-5.5,5.5-3.2,2.6-6.8,4.5-10.7,5.7-2.1.7-4.3,1.1-6.6,1.3-1.9.2-3.8.2-5.7,0-2.1,0-4.2-.5-6.3-1.1-2.3-.6-4.5-1.5-6.6-2.6-2.1-1.1-4-2.4-5.8-4-2.5-2.2-4.7-4.6-6.4-7.4-2.1-3.4-3.6-7-4.4-10.9-.6-3-.7-6-.6-9,.4,0,.5.2.6.5.4.7.8,1.4,1.2,2.1.4.7.9.7,1.4,0,.4-.5.7-.9,1.1-1.4.4-.5.6-1,.5-1.7,0-.7.1-1.3.7-1.7.4-.3.5-.7.5-1.2,0-.9,0-1.8,0-2.7,0-.5.2-.9.5-1.2,0,0,.2-.1.2-.2.7-.9,1.6-1.3,2.8-1.1.5,0,.9-.2,1.3-.5,1.8-1.8,3.6-3.6,5.4-5.4.3-.3.6-.4,1.1-.4.5,0,.9,0,1.4,0,.4,0,.7,0,1-.3.2-.2.4-.3.6-.3,1.1-.2,1.3,0,1.3,1.1,0,.8.2,1.5.8,2,.2.2.4.4.7.6.3.3.5.7.5,1.2,0,1.2,0,2.4,0,3.7,0,.5.2.7.7.7.6,0,1.2-.1,1.6-.6.3-.4.8-.7,1.1-1,.3-.4.7-.3,1,0,.9.7,1.5,1.5,1.4,2.7-.1,1.1,0,2.1.4,3.1.4,1.1.4,2.2.4,3.3,0,.8,0,1.5,0,2.3,0,.5.1.8.5,1.1,1.3,1.2,2.4,2.4,3.6,3.6.9.9,1.8,1.8,2.7,2.7.5.5,1.1.4,1.7.3.2,0,.3-.3.2-.5-.2-1-.4-2-.7-3,0-.2-.2-.4-.4-.5-.5-.4-1.1-.8-1.7-1.2-1.1-.7-1.8-1.8-2.6-2.8-.2-.2-.1-.5-.1-.8,0-1.4,0-2.8,0-4.2,0-.4,0-.8.5-.9.7-.2,1.3,0,1.5.4.4.8.9,1.5,1.3,2.4.2.4.4.6.8.7.9.4,1.9.6,2.8,1,.3.1.6,0,.8-.2.8-.8,1.6-1.6,2.4-2.4.3-.4.4-.8.3-1.2-.1-.9-.1-1.9-.2-2.8,0-.4-.2-.7-.5-1-1.2-1.3-2.5-2.5-3.7-3.7-.8-.8-.8-1,0-1.8.5-.5,1.1-1.1,1.6-1.6.4-.4.8-.6,1.3-.5,1.3.2,2.3-.1,3.1-1.2.5-.7,1.3-.8,2.1-.8,2.4,0,2.4,0,4-1.7,1.2-1.2,2.3-2.4,3.5-3.6.2-.2.3-.4.6-.4h0Z"/>
          <path class="cls-1" d="M68.1,33.2c-1.1,1.1-2.2,2.3-3.3,3.4-.7.7-1.4,1.4-2.1,2.1-.3.3-.6.4-1,.4-.5,0-1.1,0-1.6,0-1-.2-1.7.2-2.3.9-.6.8-1.4,1.2-2.5,1-.9-.1-1.5.2-2,.8-.4.6-1,1-1.5,1.5-.4.4-.4.6,0,1,1.1,1.1,2.2,2.2,3.3,3.3.8.8,1.4,1.6,1.3,2.7,0,.8,0,1.6.1,2.4,0,.3,0,.6-.3.8-.9.8-1.7,1.7-2.5,2.6-.2.2-.5.3-.7.2-1.1-.4-2.2-.8-3.3-1.1-.3,0-.4-.3-.5-.5-.4-.9-.9-1.7-1.3-2.5-.3-.7-.9-.3-1.4-.4-.5,0-.3.5-.3.7,0,1.3,0,2.6,0,3.9,0,.7.3,1.1.6,1.6,1,1.3,2.3,2.3,3.7,3.2.3.2.5.5.6.9.2.9.4,1.9.6,2.8.1.5,0,.7-.6.7-.9,0-1.6-.3-2.2-1-1.4-1.5-2.9-2.9-4.3-4.3-.6-.6-1.1-1.2-1.8-1.8-.2-.2-.2-.4-.2-.7,0-.7,0-1.4,0-2.2,0-1.5,0-3-.6-4.5-.3-.9-.2-1.9-.2-2.8,0-.6,0-1.1-.6-1.4-.3-.2-.5-.5-.7-.7-.2-.2-.5-.2-.7,0-.2.3-.6.5-.9.9-.6.8-1.3,1-2.2.9-.5,0-.7-.1-.7-.7,0-1.3,0-2.6,0-3.9,0-.4-.1-.8-.4-1-.2-.2-.4-.4-.6-.6-.8-.6-1-1.3-.9-2.3,0-.3.2-.7-.2-.8-.4-.1-1-.2-1.2,0-.6.7-1.4.6-2.2.6-.8,0-1.3.2-1.9.8-1.7,1.8-3.5,3.6-5.3,5.4-.3.3-.6.4-1,.3-1.3-.2-2.2.3-3,1.2-.3.4-.6.8-.6,1.3,0,.6,0,1.1,0,1.7,0,1,0,2-1,2.6-.3.2-.3.5-.2.8.1,1.1-.2,1.9-.9,2.7-.3.3-.5.7-.8,1.1-.5.6-1.2.5-1.5-.1-.5-.8-.9-1.6-1.4-2.4,0-.2-.2-.3-.4-.3.2-3.6,1.1-7.2,2.5-10.5,1.6-3.8,3.9-7.2,6.8-10.2,4.6-4.6,10.1-7.7,16.5-9.1,3.1-.7,6.2-.8,9.3-.6,5.2.4,10.1,1.9,14.6,4.7,2.1,1.3,4,2.7,5.7,4.5h0Z"/>
          <path class="cls-1" d="M57.4,70.4c.2-.6-.2-1-.7-1.4-.9-.7-.7-1.5-.4-2.3.5-1.4.6-1.4,2.1-1.1.4,0,.6,0,.7-.4.2-.7.4-1.4.5-2.1,0-.3.2-.5.6-.4.9.2,1.4-.3,1.9-.9.5-.6,1-.9,1.8-.8.8.1.9-.6,1.3-1,.5-.6.9-1.2,1.4-1.8.2-.3.5-.3.8-.2.5.2.9.4,1.4.6.3.1.7,0,.8.5,0,.6.2,1.2-.3,1.7-.6.6-1.1,1.2-1.7,1.7-.3.3-.3.6,0,.8.3.3.6.7.9.9.5.4.4.8.4,1.3,0,.3-.2.3-.4.3-1.2,0-1.3,0-1.2,1.3,0,1,0,1.8-.9,2.4-.9.6-1.2,1.5-1.1,2.5,0,.3.2.8-.2.9-.5.1-1.2.3-1.6-.1-.8-1.1-1.9-1.3-3.2-1.1-.7,0-1.4,0-2.2,0-.6,0-.8-.1-.7-.7,0-.1,0-.2,0-.4h0Z"/>
          <path class="cls-1" d="M36.7,64.2c0-1.3,0-1.4,1.1-1.2.9.2,1.8.6,2.7.9.4.2.5.6.6,1,.2.6.6,1,1.1,1.4.9.7,1.8,1.4,2.9,1.9,1,.5,1.5,1.4,2.2,2.2,1.1,1.2,1.8,2.7,3.3,3.5.3.2.3.4.3.7,0,.8-.2,1.6-.3,2.4,0,.3-.2.4-.5.4-.8.1-1.4-.3-2.1-.6-1.6-.7-3.1-1.5-4.7-2.2-.4-.2-.5-.4-.7-.8-.6-1.3-1.2-2.5-1.7-3.8-.3-.7-1-1.1-1.5-1.6-.7-.6-1.4-1.2-2.1-1.8-.3-.2-.4-.5-.4-.9,0-.6,0-1.2-.1-1.5h0Z"/>
          <path class="cls-1" d="M59.1,77.5c1.1,0,2.2,0,3.3,0,.4,0,.8.1,1,.5.2.3.5.7.8.9.2.1.1.3.1.5-.2,1.4-.3,1.5-1.7,1.5s-3.3,0-4.9,0c-.7,0-1.3,0-1.9-.6-.5-.5-1.1-.8-1.7-1.2-.3-.2-.3-.3,0-.6.7-.6,1.4-1.2,2.5-1,.8.1,1.7,0,2.6,0h0Z"/>
          <path class="cls-2" d="M41.3,37.4c0-2.1,1.3-3.7,3.2-4.2,1.9-.4,3.8.5,4.6,2.2.8,1.8.3,3.8-1.3,5-.4.3-.5.6-.6,1-.3,1-.8,2-1.3,2.9-.1.2-.2.5-.4.5-.2,0-.3-.3-.4-.5-.5-.9-1-1.9-1.3-2.9-.2-.5-.4-.8-.8-1.1-1-.8-1.5-1.8-1.6-3h0Z"/>
          <path class="cls-3" d="M45.3,38.1c-1,0-1.5-.3-1.4-.9,0-.6.5-.9,1.5-.9s.2,0,.3,0c.7,0,1.2.4,1.1,1,0,.5-.5.9-1.2.9h-.3Z"/>
        </g>
      </g>
    </g>
  </g>
</svg>