<?xml version="1.0" encoding="UTF-8"?>
<svg xmlns="http://www.w3.org/2000/svg" version="1.1" xmlns:cc="http://creativecommons.org/ns#" xmlns:dc="http://purl.org/dc/elements/1.1/" xmlns:inkscape="http://www.inkscape.org/namespaces/inkscape" xmlns:rdf="http://www.w3.org/1999/02/22-rdf-syntax-ns#" xmlns:sodipodi="http://sodipodi.sourceforge.net/DTD/sodipodi-0.dtd" xmlns:svg="http://www.w3.org/2000/svg" viewBox="0 0 406.7 352.2">
  <defs>
    <style>
      .cls-1 {
        fill: #3d99e1;
      }

      .cls-2 {
        fill: #bbd9fe;
      }

      .cls-3 {
        fill: #bcdafe;
      }

      .cls-4 {
        fill: #fefefe;
      }
    </style>
  </defs>
  <!-- Generator: Adobe Illustrator 28.6.0, SVG Export Plug-In . SVG Version: 1.2.0 Build 709)  -->
  <g>
    <g id="Ebene_1">
      <g id="Layer_1-2">
        <g>
          <path class="cls-1" d="M294.6,240.8c-4.7,0-8.1,0-11.5,0-1.6,0-2.4.5-3.1,2-11.9,25.4-28.9,47.5-46.8,68.9-7.4,8.9-15.2,17.5-23.2,25.8-3.1,3.2-6.1,3.4-8.9.4-24.3-25.7-47.1-52.6-64.6-83.5-2-3.5-3.8-7.1-5.4-10.7-.9-2.1-2-2.8-4.4-2.8-9.5,0-19,.5-28.4-1.2-30.3-5.6-54.3-32.2-57.5-62.7-3.6-34.7,18.9-67.6,52.1-76.4,2.7-.7,2.6-2.2,2.5-4.3-1.3-38.9,22.5-72.3,59.4-83.2,34.3-10.1,71.8,3.5,91.6,33.5,1.6,2.3,2.9,2.9,5.7,2.5,31.3-4.2,58.1,16,62.7,47.2.4,2.6,1.3,3.8,4,4.5,27.3,7.6,48,32,51,59.9,4.2,38.7-20.8,72.2-59.2,79.2-5.7,1-11.4,1.1-15.9.9h0Z"/>
          <path class="cls-3" d="M285,229.7c1.8-6.6,3-13,2.7-19.6-1.5-37.7-28.3-69.7-64.6-77.4-30.5-6.4-56.9,2-78.4,24.5-12.4,13-19.3,28.7-21.4,46.6-1,8-.5,15.7,1.5,23.4.3,1.2,1.1,2.4-1.2,2.5-13.8.4-27.5,0-40.1-7-17.9-10-28.7-25-31.7-45.5-4.5-30.3,15.8-61.6,49.8-67.8,4.4-.8,5.8-2.4,5.3-6.8-1.6-12.4-.6-24.5,4.2-36.1,10.7-25.9,30-41.4,57.9-45.2,22.6-3.1,42.2,4.2,58.8,19.6,4.8,4.4,8.7,9.7,11.9,15.4,2.9,5.1,4,5.5,9.7,4.1,28.1-6.8,54.3,13.5,54.8,42.5,0,4.2,1.6,6,5.7,6.9,26.4,5.8,42.9,22.1,48.2,48.4,6.5,32.4-15.2,63.4-46.8,70-8.6,1.8-17.3,1.2-26.3,1.3h0Z"/>
          <path class="cls-4" d="M200.7,141.7c40.7,0,71.2,27.2,75.6,63,1.5,12.5-1.6,23.8-6.8,34.8-9.6,20.1-22.8,37.8-36.6,55.1-8.2,10.2-16.8,20-25.6,29.6-1.3,1.4-2,2.1-3.7.3-20.8-22.9-40.8-46.5-56.4-73.4-5.8-10-11.1-20.4-12.8-32-1.9-13.4.9-26.1,7-37.9,13.4-25.6,35.1-38.3,59.3-39.5h0Z"/>
          <path class="cls-1" d="M177.7,42.8c0,.9,0,1.8,0,2.7.3,2.2-.7,2.6-2.7,2.7-18.5,1.2-34.2,13.8-39.5,31.6-1,3.3-1,6.8-1.9,10.1-1.2,4.8-5.4,1.4-8.2,2.2-1.9.6-2.9-.3-2.7-2.6.9-12.1,4.8-23,12.6-32.4,9.7-11.7,22.2-18,37.2-19.9,5.2-.7,5.3-.7,5.3,5.5h0Z"/>
          <path class="cls-1" d="M298.7,207.6c0-.8,0-1.6,0-2.4-.2-2,.3-2.9,2.7-3.2,14.9-1.9,24.7-9.9,29.1-24.4.5-1.7,1.1-3.6,1-5.4-.2-3.1,1.4-3.2,3.8-3.2,7.9,0,7.9,0,6.7,7.9-2.5,17-18.6,33.1-35.7,35.5-.4,0-.9,0-1.4.1-4.2.7-6.3-1-6.3-5.1h0Z"/>
          <path class="cls-1" d="M205.1,251.7c-24.4,0-44-19.9-43.9-44.4,0-24.1,19.9-43.7,44.3-43.7,24.1,0,43.9,20,43.7,44.2-.1,24.2-19.9,43.9-44.1,43.8h0Z"/>
          <path class="cls-3" d="M205,213.2c-1.3,0-2.5,0-3.8,0-2.2-.2-5.4,1.1-6.5-.6-1.5-2.5-.5-6-.5-9,0-1.3,1-1.3,2-1.3,5.9,0,11.9-.5,17.8.2,4.4.5,1.4,4.6,2,7,.3,1.4,1.1,3.9-2.1,3.9-3,0-5.9,0-8.9,0h0Z"/>
          <path class="cls-3" d="M205.2,191.2h-5.1c-4.2,0-4.3,0-3-4.1,1.2-3.9,2.6-7.8,5.5-10.9,1.8-1.9,3.4-1.9,5.2,0,3.5,3.8,4.9,8.7,6.2,13.5.4,1.3-.6,1.5-1.6,1.5h-7.2Z"/>
          <path class="cls-3" d="M205.3,224.2h3.1c6.3,0,6.4,0,4.3,5.9-1.2,3.3-2.5,6.6-5.1,9.2-1.6,1.6-3.1,1.7-4.7,0-3.7-3.9-5.2-8.8-6.5-13.8-.4-1.4.8-1.4,1.7-1.4,2.4,0,4.8,0,7.2,0h0Z"/>
          <path class="cls-3" d="M183.2,208c0,5.6,1,5.3-4.1,5.3q-6.9,0-6.9-5.4c0-5.5,0-5.6,4.9-5.6s6.1,1.9,6.1,5.7h0Z"/>
          <path class="cls-3" d="M227.2,207.6c0-3.6,1.5-5.3,4.4-5.3,4.4,0,6.6,1.8,6.6,5.3,0,5.6,0,5.7-5.2,5.7s-5.8-1.9-5.8-5.7h0Z"/>
          <path class="cls-2" d="M176.7,191.2c3-4.8,6.2-8.1,10.9-11.3-1,3.8-1.8,6.9-2.6,10-.3,1.1-1,1.4-2.1,1.3-1.8,0-3.6,0-6.2,0h0Z"/>
          <path class="cls-2" d="M233.3,191c-4.8.4-7.7-1.5-8.9-5.8-.4-1.4-.9-2.8-1.3-4.3,3.3.8,8,5.4,10.2,10.1h0Z"/>
          <path class="cls-2" d="M177.2,224.5c4.7-.4,7.7,1.5,8.9,5.9.4,1.4.9,2.8,1.3,4.3-3.4-.9-8.1-5.6-10.2-10.2h0Z"/>
          <path class="cls-2" d="M233.8,224.2c-3,4.8-6.2,8.2-10.8,11.1.9-3.6,1.7-6.5,2.5-9.5.3-1.2,1-1.7,2.2-1.6,1.8,0,3.6,0,6.1,0h0Z"/>
        </g>
      </g>
    </g>
  </g>
</svg>