<?xml version="1.0" encoding="UTF-8"?>
<svg xmlns="http://www.w3.org/2000/svg" version="1.1" xmlns:cc="http://creativecommons.org/ns#" xmlns:dc="http://purl.org/dc/elements/1.1/" xmlns:inkscape="http://www.inkscape.org/namespaces/inkscape" xmlns:rdf="http://www.w3.org/1999/02/22-rdf-syntax-ns#" xmlns:sodipodi="http://sodipodi.sourceforge.net/DTD/sodipodi-0.dtd" xmlns:svg="http://www.w3.org/2000/svg" viewBox="0 0 512 512">
  <defs>
    <style>
      .cls-1 {
        fill: #00dd87;
      }

      .cls-2 {
        fill: #0f49aa;
      }

      .cls-3 {
        fill: #fcd320;
      }
    </style>
  </defs>
  <!-- Generator: Adobe Illustrator 28.6.0, SVG Export Plug-In . SVG Version: 1.2.0 Build 709)  -->
  <g>
    <g id="Ebene_1">
      <g id="Layer_1-2">
        <g>
          <path class="cls-2" d="M424.7,84.6c5.8,3.5,9.6,9.1,14,13.9,8.4,9.3,16,19.3,22.5,30,14.9,24.3,25.5,50.3,31.6,78.4,4.8,22.4,5.5,44.9,4.3,67.5-1.2,24.2-7,47.6-16.1,70.2-8.3,20.8-19.2,40.3-33,57.9-11.7,14.9-25,28.3-39.9,40.3-23.5,18.9-49.5,32.8-78.2,41.7-15.6,4.9-31.6,8.1-48,9.5-13.9,1.2-27.7,1.1-41.5.5-15.6-.6-30.9-3.7-46-7.9-16.7-4.6-32.6-11.1-47.9-19.2-15.2-8.1-29.4-17.7-42.5-29-18.2-15.7-34.1-33.4-47-53.8-15.5-24.5-26.3-50.9-32.4-79.3-4.7-21.7-5-43.6-4.4-65.5,2.7-.5,3.6,1.5,4.6,3.3,2.8,5.2,5.9,10.3,8.8,15.3,2.9,5,6.7,5.3,10.1.7,2.6-3.5,5.1-6.9,7.8-10.3,2.8-3.6,4-7.6,3.6-12.1-.5-5.2,1-9.4,5.1-12.7,2.7-2.1,3.6-5,3.6-8.5-.1-6.5,0-13.1,0-19.6,0-3.6,1.1-6.5,3.8-8.9.6-.5,1.2-1,1.7-1.6,5.4-6.4,11.9-9.7,20.6-8.3,3.8.6,6.4-1.3,9.2-4,13.2-13.2,26.2-26.6,39.5-39.8,2.2-2.2,4.6-3.2,7.7-3.2,3.3,0,6.7,0,10.1,0,2.7,0,5-.5,7-2.4,1.3-1.2,2.8-2,4.7-2.3,7.7-1.2,9.8.3,9.4,8-.3,6.1,1.1,10.9,6.2,14.6,1.8,1.3,3.1,3.2,4.8,4.7,2.5,2.3,3.5,5.1,3.5,8.6,0,8.9.1,17.9,0,26.8,0,3.9,1.3,5.3,5.3,5.4,4.6,0,8.4-.9,11.5-4.6,2.3-2.9,5.5-4.8,8-7.5,2.4-2.6,5-2.5,7.6-.3,6.2,5.1,11.1,10.8,10,19.8-.9,7.7.3,15.3,3.1,22.6,3,7.8,2.6,16,2.6,24.1,0,5.6,0,11.2,0,16.8,0,3.3,1.1,5.7,3.5,7.9,9.1,8.4,17.3,17.8,26.3,26.4,6.7,6.4,13.4,12.8,19.6,19.7,3.3,3.7,8,2.6,12.2,2.2,1.8-.2,2-2,1.7-3.4-1.5-7.3-3-14.7-4.9-22-.4-1.6-1.7-2.7-3-3.6-4-2.9-7.9-5.9-12.1-8.6-8-5.4-13.2-13.2-19-20.7-1.2-1.6-1-3.7-1-5.6,0-10.2,0-20.4,0-30.7,0-2.6-.4-5.6,3.3-6.5,4.9-1.2,9.2,0,11.1,3.1,3.3,5.7,6.7,11.3,9.1,17.3,1.1,2.7,2.9,4.4,5.6,5.4,6.7,2.6,13.6,4.5,20.4,7,2.3.9,4.4.4,6.1-1.4,5.9-5.9,11.8-11.7,17.6-17.6,2.6-2.6,2.7-5.8,2.2-8.9-.9-6.8-1-13.7-1.7-20.5-.3-3-1.7-5-3.6-7-8.9-9.1-18.1-18-27.1-27.1-5.9-6-5.9-7.5-.2-13.3,3.9-4,8-7.8,11.8-11.9,2.6-2.7,5.6-4.3,9.3-3.9,9.1,1.1,16.9-.9,22.7-8.7,3.7-5,9.2-5.9,15.3-5.8,17.3.3,17.2,0,29.2-12.6,8.4-8.9,17.1-17.6,25.9-26.3,1.2-1.2,2.4-2.7,4.3-2.8h0Z"/>
          <path class="cls-1" d="M424.7,84.6c-8,8.2-16,16.5-24,24.7-5.1,5.2-10.5,10.2-15.6,15.5-2.2,2.3-4.5,3.1-7.6,3-3.8-.2-7.7.4-11.5-.2-7.1-1.1-12.4,1.5-16.5,6.9-4.7,6.2-10.5,8.8-18.2,7.5-6.2-1-10.9,1.2-14.9,6.1-3.3,4.1-7.2,7.7-11.1,11.2-3,2.7-2.8,4.7,0,7.5,8.2,7.9,15.9,16.2,24.3,23.8,6.1,5.5,9.9,11.5,9.8,20,0,5.9.6,11.7,1.1,17.6.2,2.5-.7,4.2-2.4,5.9-6.3,6.1-12.5,12.3-18.6,18.6-1.7,1.8-3.3,2.2-5.4,1.5-8.1-2.8-16.1-5.6-24.2-8.3-2-.7-2.7-2.2-3.4-3.7-2.9-6.4-6.5-12.4-9.6-18.6-2.5-5-6.7-2.5-10-2.6-3.6,0-2,3.3-2,5.2-.2,9.6.3,19.2-.2,28.7-.2,5,2,8.3,4.7,11.9,7.4,9.8,17,16.8,27,23.5,2.4,1.6,3.6,3.5,4.1,6.5,1.1,6.9,2.8,13.7,4.3,20.5.8,3.6-.2,4.9-4.2,5.2-6.8.5-11.4-2-16-7.1-10-10.9-21-20.8-31.4-31.4-4.2-4.3-8.3-8.9-12.8-12.8-1.6-1.4-1.6-3-1.6-4.8,0-5.3-.2-10.5,0-15.8.4-11.2-.4-22.2-4.5-32.8-2.5-6.5-1.4-13.6-1.4-20.4,0-4.1-.7-7.7-4.3-10.4-2-1.5-3.7-3.6-5.5-5.4-1.7-1.7-3.5-1.8-4.9.1-1.8,2.6-4.7,3.8-6.5,6.3-4,5.6-9.3,7.4-16.1,6.8-3.5-.3-5-.8-4.9-4.8.3-9.6,0-19.2.2-28.7,0-3.1-.8-5.5-3.2-7.5-1.6-1.3-2.8-3.2-4.5-4.3-6-4-7.6-9.7-6.9-16.6.2-1.9,1.5-5.1-1.2-5.9-2.8-.8-6.9-1.7-8.7.4-4.5,5.4-10.3,4.4-15.8,4-5.8-.4-9.8,1.5-13.7,5.7-12.6,13.3-25.7,26.1-38.6,39.2-2,2.1-4.5,2.6-7,2.1-9.3-1.7-16,2.1-22,8.9-2.6,2.9-4.4,5.5-4,9.6.4,4.1-.2,8.3.1,12.4.6,7.5,0,14.3-7,18.9-2.1,1.3-1.8,3.7-1.5,5.7,1.1,7.7-1.6,13.9-6.9,19.4-2.2,2.3-3.7,5.2-5.6,7.7-3.4,4.3-8.4,3.8-11.1-1-3.3-6-6.7-11.9-9.9-17.9-.7-1.2-1.5-2-2.7-2.6,1.8-26.7,7.9-52.3,18.2-76.9,11.8-28,28.3-52.9,49.6-74.4,33.6-33.8,73.9-56,120.7-66.2,22.4-4.9,45.2-6.1,67.9-4.5,38.2,2.7,73.8,14.2,106.5,34.3,15,9.3,29.3,19.6,41.4,32.5h0Z"/>
          <path class="cls-1" d="M346.7,356.1c1.4-4.2-1.3-7.5-4.9-10.3-6.9-5.3-5.4-10.8-3.1-16.6,4-10.1,4.2-10.1,15.2-8.3,2.8.5,4.5,0,5.1-3.2,1.1-5.1,2.6-10.1,3.9-15.2.6-2.4,1.8-3.8,4.3-3.3,6.4,1.3,10.5-2.2,14.1-6.7,3.4-4.2,7.3-6.9,13.1-5.9,5.5,1,6.6-4.3,9.1-7.1,3.7-4.1,6.8-8.7,9.9-13.3,1.6-2.3,3.4-2.4,5.7-1.5,3.4,1.4,6.8,2.7,10.1,4.1,2,.9,5.5.3,5.6,3.4.2,4.1,1.4,8.6-2.4,12.1-4.2,4.1-8.1,8.6-12.2,12.7-2.2,2.2-2,4,.1,6.1,2.3,2.2,4.3,4.8,6.8,6.7,3.4,2.6,2.8,6.1,2.7,9.6,0,2.1-1.7,1.9-3.1,2-9.1.6-9.4.7-9,9.7.4,7.1-.5,13.2-6.9,17.5-6.6,4.5-8.9,10.7-7.8,18.5.3,2.1,1.5,5.8-1.2,6.4-3.7.8-8.8,2.4-11.3-.9-6.2-8-14.1-9.1-23.2-8.3-5.2.5-10.5-.2-15.8.2-4.2.3-6-1-5.3-5.3.1-.8,0-1.6,0-3.2h0Z"/>
          <path class="cls-1" d="M195.4,311c-.4-9.3.7-10.6,7.9-8.8,6.7,1.7,13.3,4.2,19.9,6.5,3.2,1.1,3.7,4.4,4.4,7,1.4,4.6,4.6,7.4,8.1,10.2,6.6,5.3,13.5,10.2,21.1,13.6,7.5,3.3,11.3,10,16.2,15.7,7.7,8.8,13.3,19.4,23.8,25.7,2.1,1.2,2.4,3.2,2.2,5.4-.7,5.8-1.4,11.7-2,17.5-.2,2.2-1.4,2.6-3.5,3-5.8.9-10.5-2-15.4-4.2-11.6-5.2-23-10.9-34.6-16.2-2.6-1.2-3.9-3.2-5-5.5-4.3-9.2-8.7-18.4-12.8-27.7-2.3-5.4-7.4-7.7-11.3-11.4-4.9-4.7-10.4-8.9-15.6-13.2-2-1.6-2.8-3.6-2.9-6.2,0-4.4-.6-8.9-.8-11.3h0Z"/>
          <path class="cls-1" d="M359.5,408.2c8,0,16,.2,24,0,3.2,0,5.6.8,7.4,3.3,1.8,2.4,3.5,4.9,6.1,6.6,1.4.9,1.1,2.1.9,3.4-1.2,10.1-2.3,11.1-12.2,11.1s-24-.1-35.9,0c-5.3,0-9.8-.4-14-4.4-3.6-3.5-8.1-6.1-12.4-8.7-2.5-1.5-2.4-2.4-.5-4.2,5.1-4.6,10.1-8.5,18-7.3,6.1.9,12.4.2,18.7.2h0Z"/>
          <path class="cls-2" d="M229.1,115c-.1-15.1,9.6-27.4,23.1-30.3,13.6-3,27.7,3.9,33.3,16.4,5.9,13.1,2.1,27.8-9.5,36.2-2.6,1.9-3.7,4.3-4.6,7-2.5,7.4-5.8,14.5-9.6,21.4-.8,1.5-1.3,3.8-3.2,3.7-1.6,0-2.1-2.2-2.8-3.5-3.8-6.7-7-13.6-9.5-20.9-1.2-3.4-2.8-6.1-5.8-8.4-7.4-5.6-11-13.5-11.3-21.6h0Z"/>
          <path class="cls-3" d="M258.7,120c-7,0-10.6-2.3-10.5-6.7.1-4.5,3.7-6.7,10.7-6.7s1.3,0,1.9,0c5.1.1,8.6,3.1,8.4,7.1-.2,3.8-3.6,6.3-8.6,6.3h-1.9Z"/>
        </g>
      </g>
    </g>
  </g>
</svg>