<?xml version="1.0" encoding="UTF-8"?>
<svg xmlns="http://www.w3.org/2000/svg" version="1.1" xmlns:cc="http://creativecommons.org/ns#" xmlns:dc="http://purl.org/dc/elements/1.1/" xmlns:rdf="http://www.w3.org/1999/02/22-rdf-syntax-ns#" viewBox="0 0 512 512">
  <defs>
    <style>
      .cls-1 {
        fill: #00dd87;
      }

      .cls-2 {
        fill: #0f49aa;
      }

      .cls-3 {
        fill: #fcd320;
      }
    </style>
  </defs>
  <!-- Generator: Adobe Illustrator 28.6.0, SVG Export Plug-In . SVG Version: 1.2.0 Build 709)  -->
  <g>
    <g id="Layer_1">
      <g id="Layer_1-2">
        <g>
          <path class="cls-2" d="M386.2,122.1c4.5,2.8,7.5,7.1,10.9,10.9,6.6,7.2,12.5,15.1,17.6,23.5,11.7,19,20,39.4,24.7,61.3,3.8,17.5,4.3,35.1,3.4,52.8-1,18.9-5.5,37.3-12.6,54.9-6.5,16.3-15,31.5-25.8,45.3-9.1,11.7-19.6,22.1-31.2,31.5-18.4,14.8-38.8,25.7-61.2,32.6-12.2,3.8-24.7,6.3-37.6,7.5-10.8,1-21.7.9-32.4.4-12.2-.5-24.2-2.9-36-6.2-13.1-3.6-25.5-8.7-37.5-15-11.9-6.3-23-13.8-33.3-22.7-14.3-12.3-26.7-26.1-36.8-42.1-12.1-19.2-20.5-39.8-25.3-62.1-3.6-17-3.9-34.1-3.4-51.3,2.1-.4,2.8,1.2,3.6,2.6,2.2,4.1,4.6,8,6.9,12,2.3,3.9,5.2,4.1,7.9.5,2-2.7,4-5.4,6.1-8.1,2.2-2.8,3.1-5.9,2.8-9.4-.4-4,.8-7.4,4-9.9,2.1-1.7,2.8-3.9,2.8-6.6,0-5.1,0-10.2,0-15.4,0-2.8.9-5.1,3-6.9.5-.4,1-.8,1.4-1.3,4.2-5,9.3-7.6,16.1-6.5,2.9.5,5-1,7.2-3.1,10.3-10.4,20.5-20.8,30.9-31.1,1.7-1.7,3.6-2.5,6-2.5,2.6,0,5.2,0,7.9,0,2.1,0,3.9-.4,5.5-1.9,1-1,2.2-1.6,3.6-1.8,6.1-.9,7.7.2,7.4,6.3-.2,4.8.9,8.6,4.8,11.4,1.4,1,2.5,2.5,3.8,3.7,2,1.8,2.8,4,2.8,6.7,0,7,0,14,0,21,0,3.1,1,4.1,4.1,4.2,3.6,0,6.6-.7,9-3.6,1.8-2.2,4.3-3.8,6.3-5.9,1.9-2,3.9-1.9,5.9-.2,4.9,4,8.7,8.4,7.8,15.5-.7,6,.2,11.9,2.4,17.7,2.3,6.1,2.1,12.5,2,18.9,0,4.4,0,8.8,0,13.1,0,2.6.9,4.4,2.8,6.2,7.1,6.6,13.5,13.9,20.6,20.6,5.3,5,10.5,10,15.3,15.4,2.6,2.9,6.2,2.1,9.5,1.7,1.4-.1,1.6-1.6,1.3-2.7-1.2-5.8-2.3-11.5-3.8-17.2-.3-1.3-1.3-2.1-2.4-2.8-3.1-2.3-6.2-4.6-9.4-6.8-6.2-4.2-10.4-10.4-14.8-16.2-.9-1.2-.8-2.9-.8-4.4,0-8,0-16,0-24,0-2.1-.3-4.4,2.6-5.1,3.8-.9,7.2,0,8.7,2.4,2.6,4.4,5.2,8.8,7.1,13.6.9,2.1,2.3,3.4,4.4,4.3,5.2,2,10.7,3.5,15.9,5.5,1.8.7,3.4.3,4.8-1.1,4.6-4.6,9.2-9.2,13.8-13.8,2-2,2.1-4.5,1.7-7-.7-5.3-.8-10.7-1.4-16-.2-2.3-1.3-3.9-2.8-5.5-7-7.1-14.2-14.1-21.2-21.2-4.6-4.7-4.6-5.9-.1-10.4,3.1-3.1,6.2-6.1,9.2-9.3,2-2.1,4.4-3.4,7.3-3,7.1.9,13.2-.7,17.8-6.8,2.9-3.9,7.2-4.7,12-4.6,13.5.3,13.5,0,22.8-9.9,6.6-7,13.4-13.8,20.2-20.5,1-1,1.8-2.1,3.4-2.2h0Z"/>
          <path class="cls-1" d="M386.2,122.1c-6.2,6.4-12.5,12.9-18.8,19.3-4,4.1-8.2,8-12.2,12.1-1.7,1.8-3.6,2.4-6,2.3-3-.2-6,.3-9-.1-5.5-.9-9.7,1.2-12.9,5.4-3.6,4.8-8.2,6.9-14.2,5.9-4.9-.8-8.6.9-11.7,4.8-2.6,3.2-5.7,6-8.7,8.8-2.3,2.1-2.2,3.7,0,5.8,6.4,6.2,12.4,12.7,19,18.6,4.8,4.3,7.7,9,7.6,15.6,0,4.6.5,9.2.8,13.8.2,1.9-.5,3.3-1.9,4.6-4.9,4.8-9.8,9.6-14.6,14.6-1.3,1.4-2.6,1.7-4.2,1.1-6.3-2.2-12.6-4.4-19-6.5-1.6-.5-2.1-1.7-2.6-2.9-2.2-5-5.1-9.7-7.5-14.6-2-3.9-5.2-2-7.9-2.1-2.8,0-1.6,2.6-1.6,4.1-.1,7.5.2,15-.2,22.5-.2,3.9,1.6,6.5,3.7,9.3,5.8,7.7,13.3,13.2,21.1,18.4,1.9,1.3,2.8,2.8,3.2,5.1.9,5.4,2.2,10.7,3.4,16.1.6,2.8-.1,3.8-3.3,4.1-5.4.4-8.9-1.5-12.6-5.5-7.8-8.5-16.4-16.3-24.6-24.6-3.3-3.4-6.5-6.9-10.1-10.1-1.2-1.1-1.3-2.3-1.2-3.7,0-4.1-.1-8.2,0-12.4.4-8.8-.3-17.4-3.6-25.7-2-5.1-1.1-10.6-1.1-15.9,0-3.2-.5-6-3.4-8.1-1.6-1.2-2.9-2.8-4.3-4.2-1.3-1.3-2.8-1.4-3.8.1-1.4,2-3.7,3-5.1,4.9-3.1,4.4-7.3,5.8-12.6,5.3-2.8-.3-3.9-.6-3.8-3.8.2-7.5,0-15,.1-22.5,0-2.5-.6-4.3-2.5-5.9-1.2-1-2.2-2.5-3.5-3.4-4.7-3.2-5.9-7.6-5.4-12.9.2-1.5,1.2-4-1-4.6-2.2-.7-5.4-1.3-6.8.3-3.6,4.2-8.1,3.5-12.4,3.2-4.5-.3-7.6,1.2-10.7,4.4-9.9,10.4-20.1,20.4-30.2,30.7-1.6,1.6-3.5,2-5.5,1.7-7.3-1.3-12.5,1.7-17.2,7-2,2.3-3.4,4.3-3.2,7.5.3,3.2-.2,6.5.1,9.7.5,5.8,0,11.2-5.5,14.8-1.6,1.1-1.4,2.9-1.2,4.5.9,6-1.2,10.9-5.4,15.2-1.7,1.8-2.9,4.1-4.4,6-2.6,3.4-6.6,3-8.7-.8-2.6-4.7-5.2-9.3-7.8-14-.5-.9-1.2-1.6-2.1-2,1.4-20.9,6.2-40.9,14.3-60.2,9.2-21.9,22.1-41.4,38.8-58.2,26.3-26.5,57.8-43.8,94.4-51.8,17.6-3.8,35.3-4.7,53.1-3.5,29.9,2.1,57.8,11.1,83.3,26.8,11.8,7.2,22.9,15.3,32.4,25.5h0Z"/>
          <path class="cls-1" d="M325.2,334.5c1.1-3.3-1-5.9-3.8-8-5.4-4.1-4.2-8.4-2.4-13,3.1-7.9,3.3-7.9,11.9-6.5,2.2.4,3.5,0,4-2.5.9-4,2.1-7.9,3-11.9.5-1.9,1.4-2.9,3.4-2.6,5,1,8.2-1.7,11.1-5.2,2.6-3.3,5.7-5.4,10.2-4.6,4.3.8,5.1-3.4,7.1-5.6,2.9-3.2,5.3-6.8,7.8-10.4,1.2-1.8,2.7-1.9,4.5-1.2,2.6,1.1,5.3,2.1,7.9,3.2,1.6.7,4.3.3,4.4,2.7.1,3.2,1.1,6.7-1.8,9.5-3.3,3.2-6.3,6.7-9.6,9.9-1.7,1.7-1.6,3.1,0,4.7,1.8,1.7,3.4,3.7,5.3,5.2,2.7,2.1,2.2,4.8,2.1,7.5,0,1.7-1.3,1.5-2.4,1.5-7.1.5-7.4.5-7,7.6.3,5.5-.4,10.3-5.4,13.7-5.1,3.5-7,8.4-6.1,14.5.2,1.6,1.1,4.5-.9,5-2.9.6-6.9,1.9-8.9-.7-4.8-6.2-11-7.1-18.1-6.5-4.1.4-8.2-.1-12.4.1-3.3.2-4.7-.8-4.1-4.1.1-.6,0-1.2,0-2.5h0Z"/>
          <path class="cls-1" d="M206.8,299.3c-.3-7.3.6-8.3,6.2-6.9,5.3,1.3,10.4,3.3,15.6,5.1,2.5.9,2.9,3.5,3.5,5.5,1.1,3.6,3.6,5.8,6.3,8,5.1,4.1,10.5,8,16.5,10.6,5.9,2.6,8.8,7.8,12.7,12.3,6,6.9,10.4,15.2,18.6,20.1,1.6,1,1.9,2.5,1.7,4.2-.5,4.6-1.1,9.1-1.5,13.7-.2,1.7-1.1,2.1-2.7,2.3-4.6.7-8.2-1.6-12-3.3-9.1-4.1-18-8.5-27-12.6-2-.9-3-2.5-3.9-4.3-3.4-7.2-6.8-14.4-10-21.7-1.8-4.2-5.8-6-8.8-8.9-3.9-3.7-8.1-6.9-12.2-10.4-1.5-1.3-2.2-2.8-2.2-4.9,0-3.5-.5-6.9-.6-8.8h0Z"/>
          <path class="cls-1" d="M335.2,375.4c6.2,0,12.5.1,18.7,0,2.5,0,4.4.7,5.8,2.6,1.4,1.9,2.7,3.9,4.8,5.2,1.1.7.8,1.7.7,2.7-.9,7.9-1.8,8.7-9.5,8.7s-18.7-.1-28.1,0c-4.1,0-7.7-.3-10.9-3.4-2.8-2.7-6.3-4.8-9.7-6.8-1.9-1.2-1.9-1.9-.4-3.2,4-3.6,7.9-6.7,14.1-5.7,4.8.7,9.7.1,14.6.1h0Z"/>
          <path class="cls-2" d="M233.2,145.9c0-11.8,7.5-21.4,18.1-23.7,10.7-2.4,21.7,3,26.1,12.8,4.6,10.2,1.7,21.8-7.4,28.3-2,1.4-2.9,3.3-3.6,5.5-1.9,5.8-4.6,11.3-7.5,16.7-.6,1.1-1,2.9-2.5,2.9-1.2,0-1.6-1.7-2.2-2.8-2.9-5.2-5.5-10.7-7.4-16.3-.9-2.7-2.2-4.8-4.6-6.6-5.8-4.4-8.6-10.5-8.9-16.9h0Z"/>
          <path class="cls-3" d="M256.3,149.9c-5.5,0-8.3-1.8-8.2-5.2,0-3.5,2.9-5.2,8.4-5.2s1,0,1.5,0c4,.1,6.7,2.4,6.6,5.6-.2,3-2.8,4.9-6.7,4.9h-1.5Z"/>
        </g>
      </g>
    </g>
  </g>
</svg>